<mxfile host="www.draw.io" modified="2020-02-16T03:21:57.472Z" agent="Mozilla/5.0 (Macintosh; Intel Mac OS X 10_15_3) AppleWebKit/537.36 (KHTML, like Gecko) Chrome/80.0.3987.106 Safari/537.36" etag="gr_wzvjZbB667oUGyRe8" version="12.7.0" type="github">
  <diagram id="daTb2npAAJ260f9mKlmX" name="Page-1">
    <mxGraphModel dx="1426" dy="794" grid="1" gridSize="10" guides="1" tooltips="1" connect="1" arrows="1" fold="1" page="1" pageScale="1" pageWidth="827" pageHeight="1169" math="0" shadow="0">
      <root>
        <mxCell id="0"/>
        <mxCell id="1" parent="0"/>
        <mxCell id="OG2uGzJ4i9f9NUBHowkB-85" value="" style="rounded=0;whiteSpace=wrap;html=1;" vertex="1" parent="1">
          <mxGeometry x="220.86" y="367" width="458.28" height="340" as="geometry"/>
        </mxCell>
        <mxCell id="OG2uGzJ4i9f9NUBHowkB-38" value="" style="group" vertex="1" connectable="0" parent="1">
          <mxGeometry x="30" y="552" width="170" height="110" as="geometry"/>
        </mxCell>
        <mxCell id="OG2uGzJ4i9f9NUBHowkB-24" value="" style="group" vertex="1" connectable="0" parent="OG2uGzJ4i9f9NUBHowkB-38">
          <mxGeometry width="130" height="70" as="geometry"/>
        </mxCell>
        <mxCell id="OG2uGzJ4i9f9NUBHowkB-2" value="action&lt;br&gt;" style="rounded=0;whiteSpace=wrap;html=1;fillColor=#fff2cc;strokeColor=#d6b656;" vertex="1" parent="OG2uGzJ4i9f9NUBHowkB-24">
          <mxGeometry x="10" y="10" width="120" height="60" as="geometry"/>
        </mxCell>
        <mxCell id="OG2uGzJ4i9f9NUBHowkB-7" value="day 1" style="text;html=1;align=center;verticalAlign=middle;resizable=0;points=[];autosize=1;" vertex="1" parent="OG2uGzJ4i9f9NUBHowkB-24">
          <mxGeometry width="40" height="20" as="geometry"/>
        </mxCell>
        <mxCell id="OG2uGzJ4i9f9NUBHowkB-25" value="" style="group" vertex="1" connectable="0" parent="OG2uGzJ4i9f9NUBHowkB-38">
          <mxGeometry x="10" y="10" width="130" height="70" as="geometry"/>
        </mxCell>
        <mxCell id="OG2uGzJ4i9f9NUBHowkB-26" value="action&lt;br&gt;" style="rounded=0;whiteSpace=wrap;html=1;fillColor=#fff2cc;strokeColor=#d6b656;" vertex="1" parent="OG2uGzJ4i9f9NUBHowkB-25">
          <mxGeometry x="10" y="10" width="120" height="60" as="geometry"/>
        </mxCell>
        <mxCell id="OG2uGzJ4i9f9NUBHowkB-27" value="day 2" style="text;html=1;align=center;verticalAlign=middle;resizable=0;points=[];autosize=1;" vertex="1" parent="OG2uGzJ4i9f9NUBHowkB-25">
          <mxGeometry width="40" height="20" as="geometry"/>
        </mxCell>
        <mxCell id="OG2uGzJ4i9f9NUBHowkB-31" value="" style="group" vertex="1" connectable="0" parent="OG2uGzJ4i9f9NUBHowkB-38">
          <mxGeometry x="30" y="30" width="130" height="70" as="geometry"/>
        </mxCell>
        <mxCell id="OG2uGzJ4i9f9NUBHowkB-32" value="action&lt;br&gt;" style="rounded=0;whiteSpace=wrap;html=1;fillColor=#fff2cc;strokeColor=#d6b656;" vertex="1" parent="OG2uGzJ4i9f9NUBHowkB-31">
          <mxGeometry x="10" y="10" width="120" height="60" as="geometry"/>
        </mxCell>
        <mxCell id="OG2uGzJ4i9f9NUBHowkB-33" value="..." style="text;html=1;align=center;verticalAlign=middle;resizable=0;points=[];autosize=1;" vertex="1" parent="OG2uGzJ4i9f9NUBHowkB-31">
          <mxGeometry x="5" width="30" height="20" as="geometry"/>
        </mxCell>
        <mxCell id="OG2uGzJ4i9f9NUBHowkB-34" value="" style="group" vertex="1" connectable="0" parent="OG2uGzJ4i9f9NUBHowkB-38">
          <mxGeometry x="40" y="40" width="130" height="70" as="geometry"/>
        </mxCell>
        <mxCell id="OG2uGzJ4i9f9NUBHowkB-35" value="action&lt;br&gt;" style="rounded=0;whiteSpace=wrap;html=1;fillColor=#fff2cc;strokeColor=#d6b656;" vertex="1" parent="OG2uGzJ4i9f9NUBHowkB-34">
          <mxGeometry x="10" y="10" width="120" height="60" as="geometry"/>
        </mxCell>
        <mxCell id="OG2uGzJ4i9f9NUBHowkB-36" value="day n" style="text;html=1;align=center;verticalAlign=middle;resizable=0;points=[];autosize=1;" vertex="1" parent="OG2uGzJ4i9f9NUBHowkB-34">
          <mxGeometry width="40" height="20" as="geometry"/>
        </mxCell>
        <mxCell id="OG2uGzJ4i9f9NUBHowkB-49" value="" style="group" vertex="1" connectable="0" parent="1">
          <mxGeometry x="25" y="367" width="180" height="120" as="geometry"/>
        </mxCell>
        <mxCell id="OG2uGzJ4i9f9NUBHowkB-50" value="" style="group" vertex="1" connectable="0" parent="OG2uGzJ4i9f9NUBHowkB-49">
          <mxGeometry width="130" height="70" as="geometry"/>
        </mxCell>
        <mxCell id="OG2uGzJ4i9f9NUBHowkB-51" value="market info" style="rounded=1;whiteSpace=wrap;html=1;fillColor=#dae8fc;strokeColor=#6c8ebf;" vertex="1" parent="OG2uGzJ4i9f9NUBHowkB-50">
          <mxGeometry x="10" y="10" width="120" height="60" as="geometry"/>
        </mxCell>
        <mxCell id="OG2uGzJ4i9f9NUBHowkB-52" value="day 1" style="text;html=1;align=center;verticalAlign=middle;resizable=0;points=[];autosize=1;" vertex="1" parent="OG2uGzJ4i9f9NUBHowkB-50">
          <mxGeometry width="40" height="20" as="geometry"/>
        </mxCell>
        <mxCell id="OG2uGzJ4i9f9NUBHowkB-53" value="" style="group" vertex="1" connectable="0" parent="OG2uGzJ4i9f9NUBHowkB-49">
          <mxGeometry x="10" y="10" width="150" height="90" as="geometry"/>
        </mxCell>
        <mxCell id="OG2uGzJ4i9f9NUBHowkB-54" value="market info" style="rounded=1;whiteSpace=wrap;html=1;fillColor=#dae8fc;strokeColor=#6c8ebf;" vertex="1" parent="OG2uGzJ4i9f9NUBHowkB-53">
          <mxGeometry x="10" y="10" width="120" height="60" as="geometry"/>
        </mxCell>
        <mxCell id="OG2uGzJ4i9f9NUBHowkB-55" value="day 2" style="text;html=1;align=center;verticalAlign=middle;resizable=0;points=[];autosize=1;" vertex="1" parent="OG2uGzJ4i9f9NUBHowkB-53">
          <mxGeometry width="40" height="20" as="geometry"/>
        </mxCell>
        <mxCell id="OG2uGzJ4i9f9NUBHowkB-56" value="" style="group" vertex="1" connectable="0" parent="OG2uGzJ4i9f9NUBHowkB-53">
          <mxGeometry x="20" y="20" width="130" height="70" as="geometry"/>
        </mxCell>
        <mxCell id="OG2uGzJ4i9f9NUBHowkB-57" value="market info" style="rounded=1;whiteSpace=wrap;html=1;fillColor=#dae8fc;strokeColor=#6c8ebf;" vertex="1" parent="OG2uGzJ4i9f9NUBHowkB-56">
          <mxGeometry x="10" y="10" width="120" height="60" as="geometry"/>
        </mxCell>
        <mxCell id="OG2uGzJ4i9f9NUBHowkB-58" value="..." style="text;html=1;align=center;verticalAlign=middle;resizable=0;points=[];autosize=1;" vertex="1" parent="OG2uGzJ4i9f9NUBHowkB-56">
          <mxGeometry x="5" width="30" height="20" as="geometry"/>
        </mxCell>
        <mxCell id="OG2uGzJ4i9f9NUBHowkB-59" value="" style="group" vertex="1" connectable="0" parent="OG2uGzJ4i9f9NUBHowkB-49">
          <mxGeometry x="50" y="50" width="130" height="70" as="geometry"/>
        </mxCell>
        <mxCell id="OG2uGzJ4i9f9NUBHowkB-60" value="obs" style="rounded=1;whiteSpace=wrap;html=1;fillColor=#dae8fc;strokeColor=#6c8ebf;" vertex="1" parent="OG2uGzJ4i9f9NUBHowkB-59">
          <mxGeometry x="10" y="10" width="120" height="60" as="geometry"/>
        </mxCell>
        <mxCell id="OG2uGzJ4i9f9NUBHowkB-61" value="day n" style="text;html=1;align=center;verticalAlign=middle;resizable=0;points=[];autosize=1;" vertex="1" parent="OG2uGzJ4i9f9NUBHowkB-59">
          <mxGeometry width="40" height="20" as="geometry"/>
        </mxCell>
        <mxCell id="OG2uGzJ4i9f9NUBHowkB-64" value="" style="group" vertex="1" connectable="0" parent="1">
          <mxGeometry x="20" y="120" width="780" height="200" as="geometry"/>
        </mxCell>
        <mxCell id="OG2uGzJ4i9f9NUBHowkB-62" value="" style="rounded=0;whiteSpace=wrap;html=1;" vertex="1" parent="OG2uGzJ4i9f9NUBHowkB-64">
          <mxGeometry x="198.9795918367347" y="12.5" width="453.6734693877551" height="187.5" as="geometry"/>
        </mxCell>
        <mxCell id="OG2uGzJ4i9f9NUBHowkB-37" value="" style="group" vertex="1" connectable="0" parent="OG2uGzJ4i9f9NUBHowkB-64">
          <mxGeometry width="143.26530612244898" height="150" as="geometry"/>
        </mxCell>
        <mxCell id="OG2uGzJ4i9f9NUBHowkB-8" value="" style="group" vertex="1" connectable="0" parent="OG2uGzJ4i9f9NUBHowkB-37">
          <mxGeometry width="103.46938775510203" height="87.5" as="geometry"/>
        </mxCell>
        <mxCell id="OG2uGzJ4i9f9NUBHowkB-1" value="market info" style="rounded=1;whiteSpace=wrap;html=1;fillColor=#dae8fc;strokeColor=#6c8ebf;" vertex="1" parent="OG2uGzJ4i9f9NUBHowkB-8">
          <mxGeometry x="7.959183673469388" y="12.5" width="95.51020408163265" height="75" as="geometry"/>
        </mxCell>
        <mxCell id="OG2uGzJ4i9f9NUBHowkB-6" value="day 1" style="text;html=1;align=center;verticalAlign=middle;resizable=0;points=[];autosize=1;" vertex="1" parent="OG2uGzJ4i9f9NUBHowkB-8">
          <mxGeometry width="40" height="20" as="geometry"/>
        </mxCell>
        <mxCell id="OG2uGzJ4i9f9NUBHowkB-9" value="" style="group" vertex="1" connectable="0" parent="OG2uGzJ4i9f9NUBHowkB-37">
          <mxGeometry x="7.959183673469388" y="12.5" width="119.38775510204081" height="112.5" as="geometry"/>
        </mxCell>
        <mxCell id="OG2uGzJ4i9f9NUBHowkB-10" value="market info" style="rounded=1;whiteSpace=wrap;html=1;fillColor=#dae8fc;strokeColor=#6c8ebf;" vertex="1" parent="OG2uGzJ4i9f9NUBHowkB-9">
          <mxGeometry x="7.959183673469388" y="12.5" width="95.51020408163265" height="75" as="geometry"/>
        </mxCell>
        <mxCell id="OG2uGzJ4i9f9NUBHowkB-11" value="day 2" style="text;html=1;align=center;verticalAlign=middle;resizable=0;points=[];autosize=1;" vertex="1" parent="OG2uGzJ4i9f9NUBHowkB-9">
          <mxGeometry width="40" height="20" as="geometry"/>
        </mxCell>
        <mxCell id="OG2uGzJ4i9f9NUBHowkB-18" value="" style="group" vertex="1" connectable="0" parent="OG2uGzJ4i9f9NUBHowkB-9">
          <mxGeometry x="15.918367346938776" y="25" width="103.46938775510203" height="87.5" as="geometry"/>
        </mxCell>
        <mxCell id="OG2uGzJ4i9f9NUBHowkB-19" value="market info" style="rounded=1;whiteSpace=wrap;html=1;fillColor=#dae8fc;strokeColor=#6c8ebf;" vertex="1" parent="OG2uGzJ4i9f9NUBHowkB-18">
          <mxGeometry x="7.959183673469388" y="12.5" width="95.51020408163265" height="75" as="geometry"/>
        </mxCell>
        <mxCell id="OG2uGzJ4i9f9NUBHowkB-20" value="..." style="text;html=1;align=center;verticalAlign=middle;resizable=0;points=[];autosize=1;" vertex="1" parent="OG2uGzJ4i9f9NUBHowkB-18">
          <mxGeometry x="3.979591836734694" width="30" height="20" as="geometry"/>
        </mxCell>
        <mxCell id="OG2uGzJ4i9f9NUBHowkB-21" value="" style="group" vertex="1" connectable="0" parent="OG2uGzJ4i9f9NUBHowkB-37">
          <mxGeometry x="39.795918367346935" y="62.5" width="103.46938775510203" height="87.5" as="geometry"/>
        </mxCell>
        <mxCell id="OG2uGzJ4i9f9NUBHowkB-22" value="obs" style="rounded=1;whiteSpace=wrap;html=1;fillColor=#dae8fc;strokeColor=#6c8ebf;" vertex="1" parent="OG2uGzJ4i9f9NUBHowkB-21">
          <mxGeometry x="7.959183673469388" y="12.5" width="95.51020408163265" height="75" as="geometry"/>
        </mxCell>
        <mxCell id="OG2uGzJ4i9f9NUBHowkB-23" value="day n" style="text;html=1;align=center;verticalAlign=middle;resizable=0;points=[];autosize=1;" vertex="1" parent="OG2uGzJ4i9f9NUBHowkB-21">
          <mxGeometry width="40" height="20" as="geometry"/>
        </mxCell>
        <mxCell id="OG2uGzJ4i9f9NUBHowkB-40" value="LSTM(input_size, hidden_size=300)" style="rounded=1;whiteSpace=wrap;html=1;" vertex="1" parent="OG2uGzJ4i9f9NUBHowkB-64">
          <mxGeometry x="206.93877551020407" y="75" width="95.51020408163265" height="75" as="geometry"/>
        </mxCell>
        <mxCell id="OG2uGzJ4i9f9NUBHowkB-43" value="fc1(300, 200)" style="rounded=1;whiteSpace=wrap;html=1;" vertex="1" parent="OG2uGzJ4i9f9NUBHowkB-64">
          <mxGeometry x="366.1224489795918" y="75" width="95.51020408163265" height="75" as="geometry"/>
        </mxCell>
        <mxCell id="OG2uGzJ4i9f9NUBHowkB-44" value="" style="edgeStyle=orthogonalEdgeStyle;rounded=0;orthogonalLoop=1;jettySize=auto;html=1;" edge="1" parent="OG2uGzJ4i9f9NUBHowkB-64" source="OG2uGzJ4i9f9NUBHowkB-40" target="OG2uGzJ4i9f9NUBHowkB-43">
          <mxGeometry relative="1" as="geometry"/>
        </mxCell>
        <mxCell id="OG2uGzJ4i9f9NUBHowkB-45" value="fc2(200, action_size)" style="rounded=1;whiteSpace=wrap;html=1;" vertex="1" parent="OG2uGzJ4i9f9NUBHowkB-64">
          <mxGeometry x="525.3061224489796" y="75" width="95.51020408163265" height="75" as="geometry"/>
        </mxCell>
        <mxCell id="OG2uGzJ4i9f9NUBHowkB-46" value="" style="edgeStyle=orthogonalEdgeStyle;rounded=0;orthogonalLoop=1;jettySize=auto;html=1;" edge="1" parent="OG2uGzJ4i9f9NUBHowkB-64" source="OG2uGzJ4i9f9NUBHowkB-43" target="OG2uGzJ4i9f9NUBHowkB-45">
          <mxGeometry relative="1" as="geometry"/>
        </mxCell>
        <mxCell id="OG2uGzJ4i9f9NUBHowkB-47" value="action" style="rounded=1;whiteSpace=wrap;html=1;" vertex="1" parent="OG2uGzJ4i9f9NUBHowkB-64">
          <mxGeometry x="684.4897959183673" y="75" width="95.51020408163265" height="75" as="geometry"/>
        </mxCell>
        <mxCell id="OG2uGzJ4i9f9NUBHowkB-48" value="" style="edgeStyle=orthogonalEdgeStyle;rounded=0;orthogonalLoop=1;jettySize=auto;html=1;" edge="1" parent="OG2uGzJ4i9f9NUBHowkB-64" source="OG2uGzJ4i9f9NUBHowkB-45" target="OG2uGzJ4i9f9NUBHowkB-47">
          <mxGeometry relative="1" as="geometry"/>
        </mxCell>
        <mxCell id="OG2uGzJ4i9f9NUBHowkB-42" style="edgeStyle=orthogonalEdgeStyle;rounded=0;orthogonalLoop=1;jettySize=auto;html=1;entryX=0;entryY=0.5;entryDx=0;entryDy=0;" edge="1" parent="OG2uGzJ4i9f9NUBHowkB-64" source="OG2uGzJ4i9f9NUBHowkB-22" target="OG2uGzJ4i9f9NUBHowkB-40">
          <mxGeometry relative="1" as="geometry"/>
        </mxCell>
        <mxCell id="OG2uGzJ4i9f9NUBHowkB-63" value="Policy" style="text;html=1;align=center;verticalAlign=middle;resizable=0;points=[];autosize=1;" vertex="1" parent="OG2uGzJ4i9f9NUBHowkB-64">
          <mxGeometry x="404.3265306122449" y="11.25" width="50" height="20" as="geometry"/>
        </mxCell>
        <mxCell id="OG2uGzJ4i9f9NUBHowkB-66" value="LSTM(input_size, hidden_size=300)" style="rounded=1;whiteSpace=wrap;html=1;" vertex="1" parent="1">
          <mxGeometry x="243.95877551020408" y="419.38" width="95.51020408163265" height="75" as="geometry"/>
        </mxCell>
        <mxCell id="OG2uGzJ4i9f9NUBHowkB-68" value="" style="edgeStyle=orthogonalEdgeStyle;rounded=0;orthogonalLoop=1;jettySize=auto;html=1;entryX=0;entryY=0.5;entryDx=0;entryDy=0;" edge="1" parent="1" source="OG2uGzJ4i9f9NUBHowkB-66" target="OG2uGzJ4i9f9NUBHowkB-76">
          <mxGeometry relative="1" as="geometry">
            <mxPoint x="403.1424489795918" y="456.8800000000001" as="targetPoint"/>
          </mxGeometry>
        </mxCell>
        <mxCell id="OG2uGzJ4i9f9NUBHowkB-75" value="" style="edgeStyle=orthogonalEdgeStyle;rounded=0;orthogonalLoop=1;jettySize=auto;html=1;" edge="1" parent="1" source="OG2uGzJ4i9f9NUBHowkB-73" target="OG2uGzJ4i9f9NUBHowkB-74">
          <mxGeometry relative="1" as="geometry"/>
        </mxCell>
        <mxCell id="OG2uGzJ4i9f9NUBHowkB-73" value="fc1(action_size, 200)" style="rounded=1;whiteSpace=wrap;html=1;" vertex="1" parent="1">
          <mxGeometry x="243.96244897959178" y="594.5" width="95.51020408163265" height="75" as="geometry"/>
        </mxCell>
        <mxCell id="OG2uGzJ4i9f9NUBHowkB-84" style="edgeStyle=orthogonalEdgeStyle;rounded=0;orthogonalLoop=1;jettySize=auto;html=1;entryX=0;entryY=0.5;entryDx=0;entryDy=0;" edge="1" parent="1" source="OG2uGzJ4i9f9NUBHowkB-74" target="OG2uGzJ4i9f9NUBHowkB-76">
          <mxGeometry relative="1" as="geometry">
            <Array as="points">
              <mxPoint x="410" y="572"/>
              <mxPoint x="440" y="572"/>
              <mxPoint x="440" y="520"/>
            </Array>
          </mxGeometry>
        </mxCell>
        <mxCell id="OG2uGzJ4i9f9NUBHowkB-74" value="fc2(200, 100)" style="rounded=1;whiteSpace=wrap;html=1;" vertex="1" parent="1">
          <mxGeometry x="362.2426530612245" y="594.5" width="95.51020408163265" height="75" as="geometry"/>
        </mxCell>
        <mxCell id="OG2uGzJ4i9f9NUBHowkB-79" value="" style="edgeStyle=orthogonalEdgeStyle;rounded=0;orthogonalLoop=1;jettySize=auto;html=1;" edge="1" parent="1" source="OG2uGzJ4i9f9NUBHowkB-76" target="OG2uGzJ4i9f9NUBHowkB-78">
          <mxGeometry relative="1" as="geometry"/>
        </mxCell>
        <mxCell id="OG2uGzJ4i9f9NUBHowkB-76" value="concat" style="rounded=1;whiteSpace=wrap;html=1;" vertex="1" parent="1">
          <mxGeometry x="460" y="490" width="60" height="60" as="geometry"/>
        </mxCell>
        <mxCell id="OG2uGzJ4i9f9NUBHowkB-81" value="" style="edgeStyle=orthogonalEdgeStyle;rounded=0;orthogonalLoop=1;jettySize=auto;html=1;" edge="1" parent="1" source="OG2uGzJ4i9f9NUBHowkB-78" target="OG2uGzJ4i9f9NUBHowkB-80">
          <mxGeometry relative="1" as="geometry"/>
        </mxCell>
        <mxCell id="OG2uGzJ4i9f9NUBHowkB-78" value="fc3(400, 1)" style="rounded=1;whiteSpace=wrap;html=1;" vertex="1" parent="1">
          <mxGeometry x="550" y="490" width="120" height="60" as="geometry"/>
        </mxCell>
        <mxCell id="OG2uGzJ4i9f9NUBHowkB-80" value="value" style="rounded=1;whiteSpace=wrap;html=1;" vertex="1" parent="1">
          <mxGeometry x="700" y="490" width="80" height="60" as="geometry"/>
        </mxCell>
        <mxCell id="OG2uGzJ4i9f9NUBHowkB-82" style="edgeStyle=orthogonalEdgeStyle;rounded=0;orthogonalLoop=1;jettySize=auto;html=1;entryX=0;entryY=0.5;entryDx=0;entryDy=0;" edge="1" parent="1" source="OG2uGzJ4i9f9NUBHowkB-60" target="OG2uGzJ4i9f9NUBHowkB-66">
          <mxGeometry relative="1" as="geometry"/>
        </mxCell>
        <mxCell id="OG2uGzJ4i9f9NUBHowkB-83" style="edgeStyle=orthogonalEdgeStyle;rounded=0;orthogonalLoop=1;jettySize=auto;html=1;entryX=0;entryY=0.5;entryDx=0;entryDy=0;" edge="1" parent="1" source="OG2uGzJ4i9f9NUBHowkB-35" target="OG2uGzJ4i9f9NUBHowkB-73">
          <mxGeometry relative="1" as="geometry"/>
        </mxCell>
        <mxCell id="OG2uGzJ4i9f9NUBHowkB-87" value="Value" style="text;html=1;align=center;verticalAlign=middle;resizable=0;points=[];autosize=1;" vertex="1" parent="1">
          <mxGeometry x="425" y="390" width="50" height="20" as="geometry"/>
        </mxCell>
      </root>
    </mxGraphModel>
  </diagram>
</mxfile>
